<?xml version="1.0" encoding="UTF-8"?>
<svg width="296px" height="191px" viewBox="0 0 296 191" version="1.1" xmlns="http://www.w3.org/2000/svg" xmlns:xlink="http://www.w3.org/1999/xlink">
    <!-- Generator: Sketch 52.5 (67469) - http://www.bohemiancoding.com/sketch -->
    <title>Sinkiat1</title>
    <desc>Created with Sketch.</desc>
    <g id="Page-1" stroke="none" stroke-width="1" fill="none" fill-rule="evenodd">
        <g id="Sinkiat1" fill="#000000">
            <g id="Sinkiat-Copy-2">
                <text id="Sinkiat" font-family="LucidaGrande, Lucida Grande" font-size="48" font-weight="normal">
                    <tspan x="0" y="46">Sinkiat</tspan>
                    <tspan x="155.90625" y="46" font-family="KufiStandardGK"> </tspan>
                </text>
                <text id="Thani" font-family="LucidaGrande, Lucida Grande" font-size="48" font-weight="normal">
                    <tspan x="24" y="93">Thani</tspan>
                </text>
                <text id="Hotel" font-family="LucidaGrande, Lucida Grande" font-size="48" font-weight="normal">
                    <tspan x="31" y="137">Hotel</tspan>
                </text>
                <path d="M191,0.5 C178.573593,0.5 168.5,10.5735931 168.5,23 L168.5,124 C168.5,136.426407 178.573593,146.5 191,146.5 L273,146.5 C285.426407,146.5 295.5,136.426407 295.5,124 L295.5,23 C295.5,10.5735931 285.426407,0.5 273,0.5 L191,0.5 Z M229.442579,69.4271771 C228.225115,65.8865312 227.395143,62.7527261 226.953257,60.0238747 C226.48109,57.1080209 226.363195,54.1062925 226.604059,50.9787988 C227.309922,46.5555933 228.179101,43.3304828 229.22397,41.2891094 C230.268245,39.2488964 232.403442,36.6031244 235.682287,33.2901908 C239.274757,30.4785209 241.962942,28.6547845 243.766803,27.8116517 C245.580374,26.9639807 248.22485,26.2993969 251.732668,25.8064085 C256.126007,25.3965703 259.344959,25.3965703 261.409748,25.8141697 C263.481713,26.2332203 266.147383,27.4265551 269.487409,29.4380452 C272.273117,31.7824284 274.184956,33.8114277 275.226178,35.5401959 C276.273335,37.2788187 276.988815,39.622806 277.386062,42.6413259 C277.375389,45.3185661 277.098694,47.5035531 276.55043,49.2006326 C276.00445,50.8906425 274.872302,53.0755643 273.096662,55.8400545 C271.23229,57.8289862 269.422144,59.2542736 267.660902,60.1128845 C265.905903,60.9684517 263.482096,61.6105989 260.383815,62.0469293 L260.26183,62.0641084 L260.145826,62.0226527 C259.325115,61.7293585 258.783118,61.3286412 258.552769,60.7850662 C258.340006,60.2829927 258.340006,59.5035656 258.51965,58.401424 L258.54877,58.2227707 L258.685506,58.1041607 C261.104691,56.0056612 262.709619,54.3628417 263.490442,53.195452 C264.256228,52.0505445 264.768443,50.5507798 265.015948,48.7648284 C264.992418,46.4649967 264.685049,44.7732243 264.1128,43.7003767 C263.547401,42.6403711 262.344506,41.4747133 260.501856,40.223867 C258.144374,39.5105825 256.186237,39.2142951 254.63413,39.3286956 C253.055699,39.4450364 250.803427,40.0653242 247.965624,41.1574546 C245.120457,42.8253733 243.067399,44.3944925 241.809376,45.8538738 C240.54466,47.3210204 238.994808,49.9376962 237.184847,53.6679873 C236.014873,56.4378432 235.276485,58.7737724 234.968231,60.6701958 C234.676422,62.4654485 234.549548,65.2191439 234.590319,68.9214009 C237.833296,67.8121481 240.508777,67.0559378 242.620564,66.6528025 C244.875025,66.2224307 247.695532,65.9636777 251.170027,65.8800359 C256.019967,66.5862719 259.459626,67.3738258 261.507977,68.2537287 C263.565158,69.1374246 266.071242,70.9080895 269.093077,73.621204 C272.258409,77.4631519 274.303229,80.2378165 275.237681,81.9659073 C276.181936,83.7121259 276.893529,86.050036 277.381322,88.9957119 C278.032724,93.6903392 278.231445,97.1404108 277.972663,99.3645387 C277.712068,101.604254 276.800256,104.227516 275.208762,107.296613 C273.018897,110.455031 271.325795,112.541581 270.10661,113.572832 C268.872876,114.616389 266.987344,115.546023 264.39888,116.387558 C261.036815,117.134533 258.295925,117.229593 256.169743,116.659554 C256.09182,116.638662 256.006509,116.617178 255.911163,116.594345 C255.802087,116.568224 254.601562,116.304356 254.188357,116.201162 C253.404451,116.005389 252.72307,115.788623 252.069279,115.509976 C251.766461,115.380914 251.4751,115.240427 251.194446,115.086891 C250.203368,114.544705 248.703675,113.39972 246.615975,111.581807 C244.904141,109.497746 243.733711,107.712266 243.104498,106.215211 C242.475135,104.7178 242.023359,102.643267 241.74211,99.984667 L241.728212,99.8532935 L241.781019,99.7322003 C241.997327,99.2361812 242.167933,98.9008377 242.309085,98.7055439 C242.614729,98.2826675 242.975843,98.0177704 243.37545,97.8536161 C243.899144,97.6384884 244.616027,97.7679177 245.575987,98.1844968 L245.754457,98.3153242 C248.221229,101.155803 250.097469,102.950366 251.350507,103.683615 C252.57587,104.400669 254.348219,104.762062 256.572807,104.76057 C259.681806,104.149305 261.770403,103.15852 262.848445,101.82143 C263.928577,100.481747 264.487934,98.1837278 264.495312,94.987856 C264.061241,91.3404905 263.317758,88.5626466 262.276019,86.6605369 C261.233329,84.7566916 259.256815,82.5701412 256.410519,80.1605041 C253.490129,78.3943379 251.237135,77.1935565 249.661044,76.5607668 C248.760419,76.1991719 247.551292,75.8105867 246.036417,75.3966994 C245.28294,75.190838 243.977547,74.8668082 242.178369,74.4354091 C240.464689,74.2248839 239.182781,74.0971357 238.337076,74.0522009 C237.64225,74.0152827 236.761169,74.0087808 235.695268,74.0329411 C236.754221,76.7656332 237.472606,79.0110926 237.850455,80.7739508 C238.257732,82.6741033 238.594164,85.5301002 238.862633,89.4163348 C238.594862,93.7047864 238.147294,96.8261738 237.512003,98.7965998 C236.874725,100.773186 235.5078,103.271917 233.349934,106.378456 C230.736889,108.941101 228.762002,110.789385 227.42121,111.926478 C226.072703,113.070113 224.629315,114.119017 223.015012,115.111817 C219.651996,116.470891 216.919297,117.321331 214.808688,117.662232 C212.701371,118.002601 209.639086,118.089124 205.532169,117.915603 C202.081587,117.212917 199.621061,116.503989 198.134104,115.777883 C196.640319,115.048443 194.823841,113.665657 192.621687,111.573549 C190.538906,108.925408 189.195808,106.614928 188.595528,104.630373 C187.994864,102.644554 187.844267,100.014557 188.149891,96.6476315 C189.102141,93.1068736 190.059414,90.5999666 191.037605,89.1106812 C192.020727,87.6138864 193.791162,85.9755077 196.427074,84.1356982 C198.3824,83.2233619 199.83775,82.6293421 200.805434,82.3510843 C201.778396,82.071309 203.137449,81.8574079 204.889773,81.7056003 L205.024188,81.6939557 L205.146214,81.7515079 C205.916631,82.1148641 206.414309,82.4569073 206.655987,82.8267884 C206.901256,83.202167 207.000126,83.7817974 206.991287,84.5942423 L206.989849,84.7264329 L206.923264,84.8406385 C206.563438,85.4578112 206.251427,85.8898871 205.969384,86.1478344 C205.765904,86.3339299 202.763799,88.8693743 202.375524,89.3706222 C201.623047,90.3420413 200.962817,91.6184686 200.398767,93.2002894 C200.093225,95.9304135 200.186716,97.9127127 200.658672,99.1254128 C201.125655,100.325337 202.329442,101.706358 204.27583,103.24363 C207.391426,104.281666 209.854163,104.676349 211.649614,104.439653 C213.464972,104.200334 216.14269,103.11507 219.655745,101.181375 C222.4728,98.6971483 224.391954,96.7570722 225.405038,95.3754019 C226.417349,93.9947847 227.427221,91.9390327 228.424077,89.2204075 C229.400136,86.4239315 230.01475,84.177666 230.268419,82.4884935 C230.522708,80.7951883 230.635497,78.1911054 230.604226,74.6816259 L230.604226,74.6505149 C227.988878,75.5861485 225.995186,76.2293886 224.618106,76.5812077 C223.121976,76.963442 221.151603,77.3089909 218.639043,77.6233046 C214.327539,77.607712 211.098222,77.3527546 208.938893,76.8533668 C206.770657,76.3519191 204.215433,75.2658904 201.251098,73.5881004 C198.898302,72.1419303 197.021957,70.62829 195.623048,69.0440908 C194.235386,67.4726284 192.359257,64.7446634 189.942925,60.7651827 C188.895726,57.9661952 188.204887,55.5641365 187.871244,53.5553578 C187.537333,51.5449699 187.429124,49.1336494 187.550592,46.2610206 C188.189596,42.2523566 188.824197,39.4545037 189.464044,37.8475617 C190.110221,36.2247259 191.328196,34.3871269 193.129694,32.3107902 C195.001238,30.3198557 196.665736,28.9704885 198.136837,28.2631579 C199.595843,27.5616427 202.059594,26.9196262 205.547818,26.3242503 L205.69951,26.321709 C208.90182,26.7584589 211.226143,27.2475533 212.686787,27.7965868 C214.157347,28.3493476 215.869049,29.3812821 217.866377,30.9220933 C219.32303,32.2816289 220.344364,33.3688427 220.936206,34.1947524 C221.530687,35.0243447 222.156483,36.2379313 222.829287,37.8638985 C223.31565,39.2215223 223.633248,40.2385264 223.783411,40.9240919 C223.93544,41.6181784 224.023133,42.4601386 224.048337,43.4523658 L224.028805,43.6040064 C223.796938,44.4055321 223.522459,44.9688055 223.174806,45.3041697 C222.820491,45.6459604 222.264342,45.8748029 221.503497,46.0187038 L221.330592,46.051406 L221.175317,45.9686079 C220.475731,45.5955632 219.941937,45.2084903 219.573555,44.7993235 C219.258298,44.449163 218.831843,44.016713 218.285911,43.4943089 C215.807794,40.9966339 213.572495,39.5146465 211.597276,39.036286 C209.644201,38.5632883 207.426192,38.9484492 205.016444,40.1594922 C203.86384,41.0717152 203.108069,41.7671301 202.762989,42.2238914 C202.573481,42.4747301 202.408025,42.763035 202.258333,43.0933477 C202.149568,43.3333495 202.052233,43.5874741 201.950126,43.8886915 C201.8961,44.0480677 201.733968,44.5538502 201.710971,44.6228566 C201.304182,45.8435 201.208981,47.9855726 201.428458,50.9354352 C202.19396,53.973741 203.005029,56.1914212 203.85038,57.5779139 C204.696825,58.9661996 206.340042,60.7722878 208.724431,62.9401758 C212.001209,65.223051 214.487096,66.7151242 216.166112,67.4117725 C217.839104,68.1059215 220.325263,68.6790913 223.574601,69.1204234 L229.442579,69.4271771 Z" id="Combined-Shape" stroke="#000000"></path>
            </g>
            <text id="EST.-1995" font-family="EkkamaiStandard-Light, Ekkamai Standard" font-size="18" font-style="italic" font-weight="300">
                <tspan x="108" y="190">EST. 1995</tspan>
            </text>
            <rect id="Rectangle" stroke="#000000" x="0.5" y="158.5" width="295" height="3"></rect>
        </g>
    </g>
</svg>